<?xml version="1.0" encoding="UTF-8" standalone="no"?>
<svg xmlns:dc="http://purl.org/dc/elements/1.1/" xmlns:cc="http://creativecommons.org/ns#" xmlns:rdf="http://www.w3.org/1999/02/22-rdf-syntax-ns#" xmlns:svg="http://www.w3.org/2000/svg" xmlns="http://www.w3.org/2000/svg" xmlns:xlink="http://www.w3.org/1999/xlink" xmlns:sodipodi="http://sodipodi.sourceforge.net/DTD/sodipodi-0.dtd" xmlns:inkscape="http://www.inkscape.org/namespaces/inkscape" id="svg3642" width="64" height="64" version="1" sodipodi:docname="decoration.svg" inkscape:version="0.92.4 (unknown)">
  <metadata id="metadata58">
    <rdf:RDF>
      <cc:Work rdf:about="">
        <dc:format>
          image/svg+xml
        </dc:format>
        <dc:type rdf:resource="http://purl.org/dc/dcmitype/StillImage"/>
      </cc:Work>
    </rdf:RDF>
  </metadata>
  <sodipodi:namedview pagecolor="#ffffff" bordercolor="#666666" borderopacity="0" objecttolerance="10" gridtolerance="10" guidetolerance="10" inkscape:pageopacity="0" inkscape:pageshadow="2" inkscape:window-width="1366" inkscape:window-height="723" id="namedview56" showgrid="false" inkscape:zoom="5.6162831" inkscape:cx="33.107696" inkscape:cy="68.425678" inkscape:window-x="0" inkscape:window-y="22" inkscape:window-maximized="1" inkscape:current-layer="svg3642"/>
  <defs id="defs3644">
    <linearGradient id="linearGradient4215-49">
      <stop id="stop4217-5" offset="0" style="stop-color:#000000;stop-opacity:0.184"/>
      <stop id="stop4223-8" offset="1" style="stop-color:#000000;stop-opacity:0"/>
    </linearGradient>
    <radialGradient id="radialGradient4275" cx="984" cy="905.362" r="8.5" fx="984" fy="905.362" gradientTransform="matrix(-1.6187099e-5,-1.4117565,1.4117775,-1.618734e-5,-1261.1539,1406.183)" gradientUnits="userSpaceOnUse" xlink:href="#linearGradient4215-49"/>
    <linearGradient id="linearGradient4271" x1="83.6" x2="83.6" y1="-969.362" y2="-957.362" gradientTransform="matrix(0.71428571,0,0,1,-317.71429,1250.3622)" gradientUnits="userSpaceOnUse" xlink:href="#linearGradient4215-49"/>
    <radialGradient id="radialGradient3382" cx="984" cy="905.362" r="8.5" fx="984" fy="905.362" gradientTransform="matrix(7.8257357e-6,1.411771,-1.4117668,7.8257123e-6,1345.1525,-1322.1898)" gradientUnits="userSpaceOnUse" xlink:href="#linearGradient4215-49"/>
    <linearGradient id="linearGradient4259" x1="83.6" x2="83.6" y1="-969.362" y2="-957.362" gradientTransform="matrix(0.71428571,0,0,1,-317.71429,1250.3622)" gradientUnits="userSpaceOnUse" xlink:href="#linearGradient4215-49"/>
    <linearGradient id="linearGradient4452" x1="-260" x2="-260" y1="281" y2="293" gradientUnits="userSpaceOnUse" xlink:href="#linearGradient4215-49"/>
    <linearGradient id="linearGradient4283" x1="83.6" x2="83.6" y1="-969.362" y2="-957.362" gradientTransform="matrix(0.71428571,0,0,1,-317.71429,1250.3622)" gradientUnits="userSpaceOnUse" xlink:href="#linearGradient4215-49"/>
    <radialGradient id="radialGradient4255" cx="982.909" cy="906.453" r="8.5" fx="982.909" fy="906.453" gradientTransform="matrix(1.4117577,5.5406049e-6,-5.5406032e-6,1.4117573,-1320.6245,-1262.6973)" gradientUnits="userSpaceOnUse" xlink:href="#linearGradient4215-49"/>
    <radialGradient id="radialGradient4263" cx="984" cy="905.362" r="8.5" fx="984" fy="905.362" gradientTransform="matrix(-1.411767,-9.899721e-6,9.8996845e-6,-1.4117618,1406.1698,1345.1655)" gradientUnits="userSpaceOnUse" xlink:href="#linearGradient4215-49"/>
  </defs>
  <rect
     style="opacity:1;fill:#0c0e14;fill-opacity:0.8;stroke:none"
     id="decoration-center"
     class="ColorScheme-Background"
     width="62"
     height="62"
     x="1"
     y="1" />
  <g id="decoration-left">
    <path id="path71" d="M0 1V63L1 63V1.00001L0 1Z" style="color:#383c4a;opacity:1;fill:#0c0e14;fill-opacity:0.8;stroke:none"/>
    <!-- <path id="path4438" opacity="0.2" d="M0 1.00008V63.0001H0.142857V1.00008H0Z" fill="black"/> -->
  </g>
  <g id="decoration-topleft">
    <path id="path63" d="M1.00005 0V1.00005H0V0.714323V0H1.00005Z" style="color:#383c4a;opacity:1;fill:#0c0e14;fill-opacity:0.8;stroke:none"/>
    <!-- <path id="rect4410" opacity="0.2" d="M0 0V0.714384V1.00011H0.142865V0.714384V0.142926H1.00005V6.10352e-05L0 0Z" fill="black"/> -->
  </g>
  <g id="decoration-top">
    <path id="path111" d="M1 0H63V1H1.00001L1 0Z" style="color:#383c4a;opacity:1;fill:#0c0e14;fill-opacity:0.8;stroke:none"/>
    <!-- <path id="path4433" opacity="0.2" d="M1 6.10352e-05V0.142918H63V6.10352e-05H1Z" fill="black"/> -->
  </g>
  <g id="decoration-topright">
    <path id="path119" d="M63 0V1.00005H64.0001L64 0H63.2857H63Z" style="color:#383c4a;opacity:1;fill:#0c0e14;fill-opacity:0.8;stroke:none"/>
    <!-- <path id="path4445" opacity="0.2" d="M63 6.10352e-05V0.142926H63.8572V0.714384V1.00011H64.0001V0.714384L64 0L63 6.10352e-05Z" fill="black"/> -->
  </g>
  <g id="decoration-right">
    <path id="path79" d="M64 1V63L63 63V1.00001L64 1Z" style="color:#383c4a;opacity:1;fill:#0c0e14;fill-opacity:0.8;stroke:none"/>
    <!-- <path id="path4440" opacity="0.2" d="M63.8571 1.00006V63.0001H64V1.00006H63.8571Z" fill="black"/> -->
  </g>
  <g id="decoration-bottomright">
    <path id="path103" d="M63 64V63H64V64L63.2857 64H63Z" style="color:#383c4a;opacity:1;fill:#0c0e14;fill-opacity:0.8;stroke:none"/>
    <!-- <path id="path4449" opacity="0.2" d="M63.8571 63V63.8571H63.2857H63V64H63.2857H64V63H63.8571Z" fill="black"/> -->
  </g>
  <g id="decoration-bottom">
    <path id="path95" d="M1 64H63V63.0001H1.00001L1 64Z" style="color:#383c4a;opacity:1;fill:#0c0e14;fill-opacity:0.8;stroke:none"/>
    <!-- <path id="path4436" opacity="0.2" d="M1 63.8571V64H63V63.8571H1Z" fill="black"/> -->
  </g>
  <g id="decoration-bottomleft">
    <path id="path87" d="M1 64V63H0V63.2857V64L1 64Z" style="color:#383c4a;opacity:1;fill:#0c0e14;fill-opacity:0.8;stroke:none"/>
    <!-- <path id="path4447" opacity="0.2" d="M0 63V64L0.714286 64H1V63.8571H0.857144H0.714286H0.142857V63H0Z" fill="black"/> -->
  </g>

  <rect
     style="opacity:1;fill:#0c0e14;fill-opacity:1;stroke:none"
     id="mask-center"
     class="ColorScheme-Background"
     width="62"
     height="62"
     x="1"
     y="1" />
  <g id="mask-left">
    <path id="path71" d="M0 1V63L1 63V1.00001L0 1Z" style="color:#383c4a;opacity:1;fill:#0c0e14;fill-opacity:1;stroke:none"/>
    <!-- <path id="path4438" opacity="0.2" d="M0 1.00008V63.0001H0.142857V1.00008H0Z" fill="black"/> -->
  </g>
  <g id="mask-topleft">
    <path id="path63" d="M1.00005 0V1.00005H0V0.714323V0H1.00005Z" style="color:#383c4a;opacity:1;fill:#0c0e14;fill-opacity:1;stroke:none"/>
    <!-- <path id="rect4410" opacity="0.2" d="M0 0V0.714384V1.00011H0.142865V0.714384V0.142926H1.00005V6.10352e-05L0 0Z" fill="black"/> -->
  </g>
  <g id="mask-top">
    <path id="path111" d="M1 0H63V1H1.00001L1 0Z" style="color:#383c4a;opacity:1;fill:#0c0e14;fill-opacity:1;stroke:none"/>
    <path id="path4433" opacity="0.2" d="M1 6.10352e-05V0.142918H63V6.10352e-05H1Z" fill="black"/>
  </g>
  <g id="mask-topright">
    <path id="path119" d="M63 0V1.00005H64.0001L64 0H63.2857H63Z" style="color:#383c4a;opacity:1;fill:#0c0e14;fill-opacity:1;stroke:none"/>
    <!-- <path id="path4445" opacity="0.2" d="M63 6.10352e-05V0.142926H63.8572V0.714384V1.00011H64.0001V0.714384L64 0L63 6.10352e-05Z" fill="black"/> -->
  </g>
  <g id="mask-right">
    <path id="path79" d="M64 1V63L63 63V1.00001L64 1Z" style="color:#383c4a;opacity:1;fill:#0c0e14;fill-opacity:1;stroke:none"/>
    <!-- <path id="path4440" opacity="0.2" d="M63.8571 1.00006V63.0001H64V1.00006H63.8571Z" fill="black"/> -->
  </g>
  <g id="mask-bottomright">
    <path id="path103" d="M63 64V63H64V64L63.2857 64H63Z" style="color:#383c4a;opacity:1;fill:#0c0e14;fill-opacity:1;stroke:none"/>
    <!-- <path id="path4449" opacity="0.2" d="M63.8571 63V63.8571H63.2857H63V64H63.2857H64V63H63.8571Z" fill="black"/> -->
  </g>
  <g id="mask-bottom">
    <path id="path95" d="M1 64H63V63.0001H1.00001L1 64Z" style="color:#383c4a;opacity:1;fill:#0c0e14;fill-opacity:1;stroke:none"/>
    <path id="path4436" opacity="0.2" d="M1 63.8571V64H63V63.8571H1Z" fill="black"/>
  </g>
  <g id="mask-bottomleft">
    <path id="path87" d="M1 64V63H0V63.2857V64L1 64Z" style="color:#383c4a;opacity:1;fill:#0c0e14;fill-opacity:1;stroke:none"/>
    <!-- <path id="path4447" opacity="0.2" d="M0 63V64L0.714286 64H1V63.8571H0.857144H0.714286H0.142857V63H0Z" fill="black"/> -->
  </g>
</svg>
